<?xml version="1.0" encoding="UTF-8"?>
<svg id="Layer_1" data-name="Layer 1" xmlns="http://www.w3.org/2000/svg" viewBox="0 0 150 150">
  <defs>
    <style>
      .cls-1 {
        fill: #444751;
      }
    </style>
  </defs>
  <path class="cls-1" d="M95.93,26.45c3.46,0,6.92.37,10.27,1.11,10.44,2.29,19.92,8.14,26.71,16.48,6.89,8.46,10.68,19.13,10.68,30.06s-3.79,21.61-10.68,30.07c-6.79,8.34-16.28,14.2-26.71,16.49-3.35.73-6.8,1.1-10.27,1.1-6.35,0-12.66-1.28-18.47-3.71,9.05-7.71,14.87-18.67,16.13-30.49.77.13,1.55.2,2.33.2,7.53,0,13.66-6.13,13.66-13.66s-6.13-13.66-13.66-13.66h-.1c-2.25,0-4.24-1.17-5.19-3.06l-10.76-21.37c-.76-1.51-.8-3.27-.11-4.82.68-1.52,1.97-2.64,3.56-3.07,4.09-1.12,8.33-1.68,12.61-1.68M95.93,23.66c-4.62,0-9.09.62-13.34,1.78-5.08,1.39-7.57,7.14-5.2,11.84l10.76,21.37c1.46,2.89,4.45,4.6,7.69,4.6.02,0,.03,0,.05,0h.05c6.01,0,10.87,4.87,10.87,10.86s-4.86,10.86-10.87,10.86c-1.75,0-3.41-.42-4.88-1.16-.39,14.44-7.78,27.13-18.9,34.8,7.09,3.8,15.18,5.95,23.78,5.95,3.73,0,7.37-.4,10.87-1.17,22.63-4.97,39.58-25.15,39.58-49.28s-16.95-44.31-39.58-49.27c-3.5-.77-7.14-1.18-10.87-1.18h0Z"/>
  <path class="cls-1" d="M47.34,41.68c22.57,0,40.93,18.36,40.93,40.93s-18.36,40.93-40.93,40.93S6.41,105.18,6.41,82.61s18.36-40.93,40.93-40.93M63.47,96.11c7.49,0,13.59-7.35,13.59-16.38s-6.09-16.38-13.59-16.38-13.59,7.35-13.59,16.38,6.09,16.38,13.59,16.38M29.23,96.11c7.49,0,13.59-7.35,13.59-16.38s-6.09-16.38-13.59-16.38-13.59,7.35-13.59,16.38,6.09,16.38,13.59,16.38M47.34,38.89c-24.15,0-43.72,19.58-43.72,43.72s19.58,43.72,43.72,43.72,43.72-19.58,43.72-43.72-19.58-43.72-43.72-43.72h0ZM63.47,93.32c-5.96,0-10.79-6.08-10.79-13.59s4.83-13.59,10.79-13.59,10.79,6.08,10.79,13.59-4.83,13.59-10.79,13.59h0ZM29.23,93.32c-5.96,0-10.79-6.08-10.79-13.59s4.83-13.59,10.79-13.59,10.79,6.08,10.79,13.59-4.83,13.59-10.79,13.59h0Z"/>
</svg>