<?xml version="1.0" encoding="UTF-8"?>
<svg id="Layer_1" data-name="Layer 1" xmlns="http://www.w3.org/2000/svg" viewBox="0 0 500 102.67">
  <defs>
    <style>
      .cls-1 {
        fill: #fff;
      }

      .cls-2 {
        fill: #444751;
      }
    </style>
  </defs>
  <path class="cls-2" d="M103.18,1.18C99.68.41,96.04,0,92.31,0,87.69,0,83.22.62,78.96,1.78c-5.08,1.39-7.57,7.14-5.2,11.84l10.76,21.37c1.46,2.9,4.48,4.62,7.73,4.6h.05c6.01,0,10.87,4.87,10.87,10.86s-4.86,10.86-10.87,10.86c-1.75,0-3.41-.42-4.88-1.16,0,.2-.02.4-.03.6.02-.6.05-1.2.05-1.81,0-24.15-19.58-43.72-43.72-43.72S0,34.8,0,58.95s19.58,43.72,43.72,43.72c9.69,0,18.64-3.16,25.88-8.49-.36.26-.72.52-1.08.77,7.09,3.8,15.18,5.95,23.78,5.95,3.73,0,7.37-.4,10.87-1.17,22.63-4.97,39.58-25.15,39.58-49.28S125.81,6.14,103.18,1.18ZM25.61,69.66c-5.96,0-10.79-6.08-10.79-13.59s4.83-13.59,10.79-13.59,10.79,6.08,10.79,13.59-4.83,13.59-10.79,13.59ZM87.37,61.42c-.03.57-.08,1.14-.13,1.71.05-.57.1-1.13.13-1.71ZM87.18,63.76c-.06.58-.13,1.16-.22,1.74.09-.58.16-1.16.22-1.74ZM86.89,65.91c-.08.52-.17,1.03-.28,1.54.1-.51.19-1.02.28-1.54ZM86.52,67.92c-.12.59-.26,1.17-.4,1.75.15-.58.28-1.16.4-1.75ZM86,70.13c-.16.6-.32,1.19-.5,1.77.18-.58.35-1.18.5-1.77ZM85.43,72.11c-.18.56-.36,1.11-.56,1.66.2-.55.38-1.1.56-1.66ZM84.75,74.1c-.21.58-.44,1.15-.68,1.71.24-.57.46-1.14.68-1.71ZM83.93,76.16c-.25.58-.51,1.15-.78,1.72.27-.57.53-1.14.78-1.72ZM83.1,77.98c-.27.55-.55,1.09-.84,1.63.29-.54.57-1.08.84-1.63ZM82.11,79.89c-.29.54-.6,1.07-.92,1.6.32-.52.62-1.06.92-1.6ZM81.01,81.8c-.33.53-.66,1.06-1.01,1.57.35-.52.68-1.04,1.01-1.57ZM79.92,83.48c-.33.49-.67.97-1.02,1.44.35-.47.69-.95,1.02-1.44ZM78.67,85.22c-.35.47-.72.93-1.09,1.39.37-.46.74-.92,1.09-1.39ZM77.29,86.96c-.37.44-.74.87-1.12,1.29.38-.42.76-.86,1.12-1.29ZM75.93,88.52c-.34.37-.69.74-1.05,1.1.36-.36.71-.73,1.05-1.1ZM59.86,69.66c-5.96,0-10.79-6.08-10.79-13.59s4.83-13.59,10.79-13.59,10.79,6.08,10.79,13.59-4.83,13.59-10.79,13.59ZM71.13,93.01c-.28.22-.56.45-.84.66.28-.22.56-.44.84-.66ZM73.32,91.13c.39-.36.78-.73,1.16-1.11-.38.38-.77.75-1.16,1.11ZM71.87,92.4c.32-.27.64-.54.95-.82-.31.28-.63.55-.95.82Z"/>
  <g>
    <path class="cls-1" d="M92.31,99.5c-7.31,0-14.57-1.64-21.11-4.77,10.2-7.83,16.62-19.75,17.53-32.56,1.15.35,2.35.53,3.58.53,6.76,0,12.27-5.5,12.27-12.26s-5.5-12.26-12.27-12.26c-2.88,0-5.35-1.47-6.54-3.83l-10.76-21.37c-.95-1.89-1-4.08-.14-6.01.85-1.9,2.47-3.3,4.47-3.85,4.21-1.15,8.58-1.73,12.98-1.73,3.56,0,7.12.39,10.57,1.15,22.3,4.89,38.49,25.04,38.49,47.91s-16.19,43.02-38.49,47.92c-3.44.75-7,1.13-10.57,1.13Z"/>
    <path class="cls-2" d="M92.31,2.79c3.46,0,6.92.37,10.27,1.11,10.44,2.29,19.92,8.14,26.71,16.48,6.89,8.46,10.68,19.13,10.68,30.06s-3.79,21.61-10.68,30.07c-6.79,8.34-16.28,14.2-26.71,16.49-3.35.73-6.8,1.1-10.27,1.1-6.35,0-12.66-1.28-18.47-3.71,9.05-7.71,14.87-18.67,16.13-30.49.77.13,1.55.2,2.33.2,7.53,0,13.66-6.13,13.66-13.66s-6.13-13.66-13.66-13.66h-.1c-2.25,0-4.24-1.17-5.19-3.06l-10.76-21.37c-.76-1.51-.8-3.27-.11-4.82.68-1.52,1.97-2.64,3.56-3.07,4.09-1.12,8.33-1.68,12.61-1.68M92.31,0c-4.62,0-9.09.62-13.34,1.78-5.08,1.39-7.57,7.14-5.2,11.84l10.76,21.37c1.46,2.89,4.45,4.6,7.69,4.6.02,0,.03,0,.05,0h.05c6.01,0,10.87,4.87,10.87,10.86s-4.86,10.86-10.87,10.86c-1.75,0-3.41-.42-4.88-1.16-.39,14.44-7.78,27.13-18.9,34.8,7.09,3.8,15.18,5.95,23.78,5.95,3.73,0,7.37-.4,10.87-1.17,22.63-4.97,39.58-25.15,39.58-49.28S125.81,6.14,103.18,1.18c-3.5-.77-7.14-1.18-10.87-1.18h0Z"/>
  </g>
  <g>
    <path class="cls-1" d="M43.72,101.28C20.38,101.28,1.4,82.29,1.4,58.95S20.38,16.62,43.72,16.62s42.33,18.99,42.33,42.33-18.99,42.33-42.33,42.33ZM59.86,41.09c-6.72,0-12.19,6.72-12.19,14.98s5.47,14.98,12.19,14.98,12.19-6.72,12.19-14.98-5.47-14.98-12.19-14.98ZM25.61,41.09c-6.72,0-12.19,6.72-12.19,14.98s5.47,14.98,12.19,14.98,12.19-6.72,12.19-14.98-5.47-14.98-12.19-14.98Z"/>
    <path class="cls-2" d="M43.72,18.02c22.57,0,40.93,18.36,40.93,40.93s-18.36,40.93-40.93,40.93S2.79,81.52,2.79,58.95,21.15,18.02,43.72,18.02M59.86,72.45c7.49,0,13.59-7.35,13.59-16.38s-6.09-16.38-13.59-16.38-13.59,7.35-13.59,16.38,6.09,16.38,13.59,16.38M25.61,72.45c7.49,0,13.59-7.35,13.59-16.38s-6.09-16.38-13.59-16.38-13.59,7.35-13.59,16.38,6.09,16.38,13.59,16.38M43.72,15.23C19.58,15.23,0,34.8,0,58.95s19.58,43.72,43.72,43.72,43.72-19.58,43.72-43.72S67.87,15.23,43.72,15.23h0ZM59.86,69.66c-5.96,0-10.79-6.08-10.79-13.59s4.83-13.59,10.79-13.59,10.79,6.08,10.79,13.59-4.83,13.59-10.79,13.59h0ZM25.61,69.66c-5.96,0-10.79-6.08-10.79-13.59s4.83-13.59,10.79-13.59,10.79,6.08,10.79,13.59-4.83,13.59-10.79,13.59h0Z"/>
  </g>
  <path class="cls-2" d="M181.84,60.12c0,6.15-2.59,11.43-7.77,15.82-4.55,3.88-10.08,6.35-16.59,7.41-.24.03-.44.05-.59.05-.7,0-2.24-2.13-4.64-6.39-2.39-4.26-3.59-6.86-3.59-7.8,0-.33.23-.55.68-.64,4.39-1,7.3-1.85,8.73-2.55,3.15-1.58,4.73-3.91,4.73-7,0-1.97-1.03-4.17-3.09-6.59-3.58-4.12-5.52-6.41-5.82-6.87-2.09-3.15-3.14-6.64-3.14-10.46,0-5.55,2.56-10.15,7.68-13.82,4.18-3.03,9.32-5,15.41-5.91.33-.03.59-.05.77-.05.45,0,.82.36,1.09,1.09.79,2.21,2.62,6.21,5.5,12,.09.18.14.33.14.45,0,.52-.27.77-.82.77-.24,0-.65-.05-1.23-.14-.58-.09-1.02-.14-1.32-.14-2.18,0-4.09.5-5.73,1.5-1.97,1.15-2.96,2.76-2.96,4.82,0,1.85,1.09,4.12,3.27,6.82,3.85,4.85,5.86,7.4,6.05,7.64,2.15,3.33,3.23,6.65,3.23,9.96Z"/>
  <path class="cls-2" d="M230.72,56.35c0,3.06-.99,4.8-2.96,5.23-.33.06-3.47.39-9.41,1-3.58.39-8.91.86-16,1.41.42,1.97,1.71,3.47,3.86,4.5,1.76.85,3.76,1.27,6,1.27,2.7,0,5.41-.73,8.14-2.18,1.15-.73,2.3-1.45,3.46-2.18.64.3,1.7,1.85,3.21,4.64,1.5,2.79,2.25,4.56,2.25,5.32,0,.21-.23.56-.68,1.05-3.7,3.97-9.44,5.96-17.23,5.96-7.21,0-13.03-2.11-17.46-6.32-4.55-4.27-6.82-9.99-6.82-17.14s2.03-12.68,6.09-17.14c4.18-4.61,9.73-6.91,16.64-6.91,5.82,0,10.76,2.12,14.82,6.36,4.06,4.24,6.09,9.29,6.09,15.14ZM214.81,53.57c0-1.88-.67-3.53-2-4.96-1.33-1.42-2.93-2.14-4.77-2.14s-3.49.8-4.73,2.41c-1.15,1.49-1.73,3.23-1.73,5.23,0,.82.42,1.23,1.27,1.23,2.24,0,5.73-.35,10.46-1.05,1-.15,1.5-.39,1.5-.73Z"/>
  <path class="cls-2" d="M265.86,52.71c0,1.18-.65,1.77-1.95,1.77-.58,0-1.42-.04-2.52-.11-1.11-.08-1.93-.11-2.48-.11-2.52,0-4.23.39-5.14,1.18-.91.79-1.36,2.38-1.36,4.77,0,1.3.02,3.28.07,5.93.05,2.65.07,4.63.07,5.93,0,.88.06,2.19.18,3.93.12,1.74.18,3.04.18,3.89,0,.73-.5,1.14-1.5,1.23-1.45.12-3.68.18-6.68.18s-5.18-.09-6.91-.27c-1-.12-1.5-.62-1.5-1.5,0-2.42.01-6.05.05-10.89.03-4.83.05-8.46.05-10.89,0-7.12-.65-12.99-1.95-17.59-.06-.27-.09-.5-.09-.68,0-.45.23-.76.68-.91,1.67-.18,4.11-.52,7.32-1,4.79-.94,7.26-1.41,7.41-1.41.55,0,.89.95,1.05,2.86.15,1.91.42,2.86.82,2.86-.42,0,.82-.8,3.73-2.39,2.91-1.59,5.71-2.39,8.41-2.39,1.7,0,2.55.36,2.55,1.09,0,.88-.09,2.12-.27,3.73-.18,1.73-.29,2.97-.32,3.73,0,.88.01,2.05.05,3.5.06,1.79.09,2.97.09,3.55Z"/>
  <path class="cls-2" d="M321.33,59.17c0,6.49-1.91,11.87-5.73,16.14-3.94,4.43-9.11,6.64-15.5,6.64-2.33,0-4.83-.58-7.5-1.73-2.67-1.15-3.88-1.73-3.64-1.73-.39,0-.59.45-.59,1.36,0,1.55.08,3.87.23,6.98.15,3.11.23,5.43.23,6.98,0,.97-.5,1.45-1.5,1.45l-9.27.05c-2.09,0-3.44-.08-4.05-.23-.91-.21-1.36-.77-1.36-1.68l.09-35.01c0-7.06-.53-13.02-1.59-17.87-.06-.3-.09-.56-.09-.77,0-.45.18-.76.55-.91,1.18-.45,3.44-.94,6.77-1.45,3.24-.52,5.59-.77,7.05-.77,1.18,0,1.86.78,2.02,2.34.17,1.56.37,2.34.61,2.34-.3,0,.99-.83,3.89-2.48,2.89-1.65,5.52-2.48,7.89-2.48,6.58,0,11.84,2.17,15.78,6.5,3.82,4.18,5.73,9.62,5.73,16.32ZM304.46,59.07c0-2.42-.74-4.55-2.23-6.37-1.61-1.91-3.59-2.86-5.96-2.86s-4.36.95-5.82,2.86c-1.27,1.73-1.91,3.85-1.91,6.37s.67,4.71,2,6.41c1.42,1.85,3.39,2.77,5.91,2.77,5.33,0,8-3.06,8-9.18Z"/>
  <path class="cls-2" d="M368.88,56.35c0,3.06-.99,4.8-2.96,5.23-.33.06-3.47.39-9.41,1-3.58.39-8.91.86-16,1.41.42,1.97,1.71,3.47,3.86,4.5,1.76.85,3.76,1.27,6,1.27,2.7,0,5.41-.73,8.14-2.18,1.15-.73,2.3-1.45,3.46-2.18.64.3,1.7,1.85,3.21,4.64,1.5,2.79,2.25,4.56,2.25,5.32,0,.21-.23.56-.68,1.05-3.7,3.97-9.44,5.96-17.23,5.96-7.21,0-13.03-2.11-17.46-6.32-4.55-4.27-6.82-9.99-6.82-17.14s2.03-12.68,6.09-17.14c4.18-4.61,9.73-6.91,16.64-6.91,5.82,0,10.76,2.12,14.82,6.36,4.06,4.24,6.09,9.29,6.09,15.14ZM352.97,53.57c0-1.88-.67-3.53-2-4.96-1.33-1.42-2.93-2.14-4.77-2.14s-3.49.8-4.73,2.41c-1.15,1.49-1.73,3.23-1.73,5.23,0,.82.42,1.23,1.27,1.23,2.24,0,5.73-.35,10.46-1.05,1-.15,1.5-.39,1.5-.73Z"/>
  <path class="cls-2" d="M419.07,79.72c0,.82-.42,1.29-1.27,1.41-.85.12-3.06.18-6.64.18-3.82,0-6.18-.09-7.09-.27-.91-.18-1.36-.8-1.36-1.86,0-1.42.05-3.58.14-6.46.09-2.88.14-5.05.14-6.5,0-1.12-.03-2.8-.09-5.02-.06-2.23-.09-3.9-.09-5.02,0-4.15-1.8-6.23-5.41-6.23-1.18,0-2.56.52-4.14,1.55-1.7,1.15-2.55,2.29-2.55,3.41v24.55c0,1-.47,1.56-1.41,1.68-1.06.12-3.23.18-6.5.18-3.55,0-5.85-.09-6.91-.27-.94-.15-1.41-.65-1.41-1.5,0-2.36.01-5.93.05-10.68.03-4.76.05-8.33.05-10.73,0-7.55-.59-13.47-1.77-17.78-.06-.27-.09-.5-.09-.68,0-.48.23-.82.68-1,1.91-.21,4.46-.55,7.64-1,4.82-.94,7.53-1.41,8.14-1.41.33,0,.59,1.02.77,3.07.18,2.05.44,3.07.77,3.07-.33,0,1.3-1.05,4.89-3.16,3.59-2.11,6.74-3.16,9.43-3.16,3.85,0,7.06.91,9.64,2.73,2.88,2.09,4.32,5,4.32,8.73v14.5c0,1.97.01,4.92.05,8.84.03,3.93.05,6.87.05,8.84Z"/>
  <path class="cls-2" d="M457.08,67.71c0,.91-.11,2.29-.34,4.14-.23,1.85-.34,3.21-.34,4.07s-.09,1.42-.27,1.66c-.18.24-.68.59-1.5,1.05-3.91,2.15-8.24,3.23-13,3.23-8.76,0-13.14-3.35-13.14-10.05,0-2,.08-5.01.23-9.02.15-4.02.23-7.02.23-9.02,0-1.33-.77-2-2.32-2h-.59c-.27.03-.47.05-.59.05-1.15,0-1.73-.41-1.73-1.23,0-.48.04-1.23.11-2.23.08-1,.11-1.74.11-2.23,0-.64-.04-1.61-.11-2.91-.08-1.3-.11-2.27-.11-2.91s.97-.94,2.91-1c1.09-.03,1.68-.33,1.77-.91.18-1.15.24-2.97.18-5.46-.12-3.91-.18-5.77-.18-5.59,0-3.52.33-5.27,1-5.27.82,0,1.98.18,3.5.55,1.73.39,2.92.62,3.59.68,1.55.21,3.88.5,7,.86.76.06,1.14.32,1.14.77,0,1.21-.1,3.05-.3,5.5-.2,2.46-.3,4.3-.3,5.55,0,1.49.44,2.23,1.32,2.23,1.06,0,2.67-.05,4.82-.14,2.15-.09,3.77-.14,4.86-.14.67,0,1,.23,1,.68,0,.7-.08,1.74-.23,3.14-.15,1.39-.23,2.44-.23,3.14s.01,1.79.05,3.18c.03,1.39.05,2.46.05,3.18,0,.64-.44.95-1.32.95-.61,0-1.62-.02-3.05-.07-1.43-.05-2.44-.07-3.05-.07h-3.41c-.45,0-.68.67-.68,2v3.23c.03,1.45.05,2.53.05,3.23,0,2.55.29,4.3.86,5.27.82,1.3,2.42,1.95,4.82,1.95.76,0,1.84-.17,3.25-.52,1.41-.35,2.4-.52,2.98-.52.64,0,.95.33.95,1Z"/>
  <path class="cls-2" d="M498.59,59.89c-1.55,0-3.68-.06-6.41-.18-3.09-.12-5.24-.18-6.46-.18.03,1.24.11,3.55.23,6.91.09,2.88.14,5.17.14,6.87,0,1.18-2.29,1.77-6.87,1.77s-6.64-.38-6.64-1.14c0-1.88.05-4.3.14-7.27.09-4.09.15-6.5.18-7.23-7.94.24-12.14.36-12.59.36-.55,0-.82-.47-.82-1.41,0-.3.15-2.03.45-5.18.03-1.82.09-3.68.18-5.59.27-.45.68-.68,1.23-.68,1.48,0,3.41.05,5.77.14,3.15.09,5.08.15,5.77.18-.06-2.67-.09-5.52-.09-8.55v-4.96c0-.58.39-.86,1.18-.86,1.12,0,2.78-.03,4.98-.09,2.2-.06,3.84-.09,4.93-.09,1.48,0,2.23.26,2.23.77,0,1.52-.05,3.82-.16,6.91-.11,3.09-.16,5.41-.16,6.96,6.49-.12,10.9-.18,13.23-.18.64,0,.95.27.95.82,0,.33-.17,2.2-.5,5.59.09,1.27,0,3.17-.27,5.68-.12.42-.33.64-.64.64Z"/>
</svg>